<svg width="24" height="24" viewBox="0 0 24 24" fill="none" xmlns="http://www.w3.org/2000/svg">
<path fill-rule="evenodd" clip-rule="evenodd" d="M4.5 1.5C3.396 1.5 2.5 2.396 2.5 3.5V18.5C2.5 19.431 3.138 20.212 4 20.4345V22C4 22.276 4.224 22.5 4.5 22.5C4.776 22.5 5 22.276 5 22V20.5H19V22C19 22.276 19.224 22.5 19.5 22.5C19.776 22.5 20 22.276 20 22V20.4345C20.862 20.212 21.5 19.431 21.5 18.5V3.5C21.5 2.396 20.604 1.5 19.5 1.5H4.5ZM4.5 2.5H19.5C20.0525 2.5 20.5 2.9475 20.5 3.5V4.5H3.5V3.5C3.5 2.9475 3.9475 2.5 4.5 2.5ZM14.5 3C14.224 3 14 3.224 14 3.5C14 3.776 14.224 4 14.5 4H15C15.276 4 15.5 3.776 15.5 3.5C15.5 3.224 15.276 3 15 3H14.5ZM16.5 3C16.224 3 16 3.224 16 3.5C16 3.776 16.224 4 16.5 4H17C17.276 4 17.5 3.776 17.5 3.5C17.5 3.224 17.276 3 17 3H16.5ZM18.5 3C18.224 3 18 3.224 18 3.5C18 3.776 18.224 4 18.5 4H19C19.276 4 19.5 3.776 19.5 3.5C19.5 3.224 19.276 3 19 3H18.5ZM3.5 5.5H20.5V18.5C20.5 19.0525 20.0525 19.5 19.5 19.5H4.5C3.9475 19.5 3.5 19.0525 3.5 18.5V5.5ZM12 6.5C8.6885 6.5 6 9.1885 6 12.5C6 15.8115 8.6885 18.5 12 18.5C15.3115 18.5 18 15.8115 18 12.5C18 9.1885 15.3115 6.5 12 6.5ZM12 7.5C14.7595 7.5 17 9.7405 17 12.5C17 15.2595 14.7595 17.5 12 17.5C9.2405 17.5 7 15.2595 7 12.5C7 9.7405 9.2405 7.5 12 7.5ZM11.5 11C11.372 11 11.244 11.049 11.1465 11.1465L10.1465 12.1465C9.9515 12.3415 9.9515 12.6585 10.1465 12.8535C10.3415 13.0485 10.6585 13.0485 10.8535 12.8535L11.8535 11.8535C12.0485 11.6585 12.0485 11.3415 11.8535 11.1465C11.756 11.049 11.628 11 11.5 11ZM13.5 11C13.372 11 13.244 11.049 13.1465 11.1465L10.1465 14.1465C9.9515 14.3415 9.952 14.6575 10.1465 14.8535C10.3425 15.048 10.6585 15.0485 10.8535 14.8535L13.8535 11.8535C14.0485 11.6585 14.048 11.3425 13.8535 11.1465C13.7555 11.049 13.628 11 13.5 11Z" fill="currentColor"/>
</svg>
